# xmcd
#
# Track frame offsets: 
#        150
#        12248
#        25483
#        38407
#        48858
#        61193
#        74543
#        87380
#        101094
#        113914
#        125859
#        137330
#        148093
#        159274
#
# Disc length: 2309 seconds
#
# Revision: 0
# Processed by: cddbd v1.5.2PL0 Copyright (c) Steve Scherf et al.
# Submitted via: ExactAudioCopy v0.95b3
#
DISCID=bd09030e
DTITLE=The Temptations - Playlist Plus
DYEAR=1900
DGENRE=Soul
TTITLE0=The Way You Do The Things You Do
TTITLE1=I'll Be In Trouble
TTITLE2=The Girl's Alright With Me
TTITLE3=Girl (Why You Wanna Make Me Blue)
TTITLE4=My Girl
TTITLE5=It's Growing
TTITLE6=Since I Lost My Baby
TTITLE7=My Baby
TTITLE8=Don't Look Back
TTITLE9=Get Ready
TTITLE10=Ain't Too Proud To Beg
TTITLE11=Beauty Is Only Skin Deep
TTITLE12=(I Know) I'm Losing You
TTITLE13=All I Need
EXTD=
EXTT0=
EXTT1=
EXTT2=
EXTT3=
EXTT4=
EXTT5=
EXTT6=
EXTT7=
EXTT8=
EXTT9=
EXTT10=
EXTT11=
EXTT12=
EXTT13=
PLAYORDER=
